<?xml version="1.0" encoding="utf-8"?>
<!-- Generator: Adobe Illustrator 16.0.0, SVG Export Plug-In . SVG Version: 6.00 Build 0)  -->
<!DOCTYPE svg PUBLIC "-//W3C//DTD SVG 1.1//EN" "http://www.w3.org/Graphics/SVG/1.1/DTD/svg11.dtd">
<svg version="1.1" id="Layer_1" xmlns="http://www.w3.org/2000/svg" xmlns:xlink="http://www.w3.org/1999/xlink" x="0px" y="0px" fill="#53565a"
	 width="196px" height="62.453px" viewBox="0 0 196 62.453" enable-background="new 0 0 196 62.453" xml:space="preserve">
<g>
	<path d="M6.394,7.895v4.113h5.238v5.413H6.394v9.656H0V2.479h14.125v5.416H6.394z"/>
	<path d="M30.718,19.705H18.223c0,2.415,1.272,3.719,3.721,3.719c1.271,0,2.186-0.422,2.837-1.533h5.709
		c-0.455,1.957-1.632,3.394-3.165,4.338c-1.533,0.949-3.425,1.405-5.348,1.405c-5.547,0-9.691-3.133-9.691-8.907
		c0-5.579,3.816-8.939,9.265-8.939c5.808,0,9.168,3.592,9.168,9.3V19.705z M25.205,16.279c-0.295-1.599-1.761-2.643-3.361-2.643
		c-1.729,0-3.164,0.915-3.521,2.643H25.205z"/>
	<path d="M37.741,27.077h-5.938V0h5.938V27.077z"/>
	<path d="M45.458,3.915c0,1.828-1.501,3.328-3.327,3.328c-1.829,0-3.33-1.5-3.33-3.328
		c0-1.827,1.501-3.329,3.33-3.329C43.956,0.586,45.458,2.088,45.458,3.915z M45.098,27.077h-5.937V10.344h5.937V27.077z"/>
	<path d="M52.645,12.235h0.065c1.078-1.666,3.1-2.448,5.056-2.448c4.993,0,8.451,4.177,8.451,8.971
		c0,4.828-3.426,8.876-8.385,8.876c-1.927,0-3.916-0.686-5.188-2.153v9.216h-5.938V10.344h5.938V12.235z M52.45,18.727
		c0,2.119,1.403,3.752,3.816,3.752c2.414,0,3.817-1.633,3.817-3.752c0-2.055-1.403-3.782-3.817-3.782
		C53.853,14.944,52.45,16.672,52.45,18.727z"/>
	<path d="M85.331,19.705H72.839c0,2.415,1.271,3.719,3.717,3.719c1.27,0,2.187-0.422,2.836-1.533h5.712
		c-0.456,1.957-1.633,3.394-3.162,4.338c-1.537,0.949-3.428,1.405-5.352,1.405c-5.547,0-9.691-3.133-9.691-8.907
		c0-5.579,3.819-8.939,9.267-8.939c5.806,0,9.166,3.592,9.166,9.3V19.705z M79.817,16.279c-0.295-1.599-1.758-2.643-3.358-2.643
		c-1.731,0-3.165,0.915-3.525,2.643H79.817z"/>
	<path d="M113.033,13.346c-0.066,3.586-0.325,6.652-2.509,9.718c-2.417,3.363-6.036,4.83-10.145,4.83
		c-7.736,0-13.118-5.253-13.118-12.983c0-7.994,5.413-13.248,13.345-13.248c5.053,0,8.97,2.286,11.089,6.887l-6.066,2.544
		c-0.881-2.35-2.742-3.915-5.316-3.915c-4.212,0-6.396,4.014-6.396,7.767c0,3.813,2.285,7.696,6.492,7.696
		c2.772,0,4.895-1.434,5.154-4.275h-5.222v-5.02H113.033z"/>
	<path d="M133.407,18.727c0,5.676-4.698,8.907-10.081,8.907c-5.351,0-10.085-3.198-10.085-8.907
		c0-5.708,4.698-8.939,10.085-8.939C128.709,9.787,133.407,13.019,133.407,18.727z M119.505,18.727c0,2.119,1.403,3.752,3.821,3.752
		c2.412,0,3.816-1.633,3.816-3.752c0-2.055-1.404-3.782-3.816-3.782C120.908,14.944,119.505,16.672,119.505,18.727z"/>
	<path d="M140.299,12.432h0.067c1.402-1.862,3.131-2.645,5.284-2.645c2.413,0,4.502,0.982,5.708,3.199
		c1.146-2.088,3.394-3.199,5.68-3.199c4.237,0,5.707,2.775,5.707,6.625v10.665h-5.936v-7.99c0-1.731,0.062-4.566-2.447-4.566
		c-2.742,0-2.837,2.573-2.837,4.566v7.99h-5.94v-7.99c0-1.862,0-4.697-2.641-4.697c-2.646,0-2.646,2.835-2.646,4.697v7.99h-5.934
		V10.344h5.934V12.432z"/>
	<path d="M181.83,19.705h-12.493c0,2.415,1.272,3.719,3.715,3.719c1.271,0,2.189-0.422,2.839-1.533h5.71
		c-0.456,1.957-1.631,3.394-3.162,4.338c-1.533,0.949-3.426,1.405-5.351,1.405c-5.55,0-9.689-3.133-9.689-8.907
		c0-5.579,3.814-8.939,9.263-8.939c5.808,0,9.169,3.592,9.169,9.3V19.705z M176.314,16.279c-0.293-1.599-1.757-2.643-3.359-2.643
		c-1.728,0-3.162,0.915-3.521,2.643H176.314z"/>
	<path d="M193.521,14.65c-0.911-0.491-2.184-0.815-3.197-0.815c-0.684,0-1.86,0.293-1.86,1.139
		c0,1.144,1.86,1.306,2.676,1.471c2.772,0.553,4.86,1.857,4.86,4.956c0,4.404-4.014,6.233-7.896,6.233
		c-2.383,0-4.729-0.686-6.752-1.926l2.156-4.145c1.204,0.85,3.228,1.699,4.697,1.699c0.751,0,1.854-0.36,1.854-1.275
		c0-1.302-1.854-1.369-3.715-1.856c-1.86-0.489-3.721-1.404-3.721-4.406c0-4.111,3.721-5.938,7.376-5.938
		c1.888,0,3.778,0.293,5.514,1.078L193.521,14.65z"/>
	<path opacity="0.6" d="M0,29.5h9.07c6.85,0,12.496,5.385,12.496,12.301c0,6.917-5.676,12.3-12.496,12.3H0V29.5z
		 M6.394,48.686h1.437c3.817,0,7.081-2.088,7.081-6.885c0-4.403-2.906-6.884-7.018-6.884h-1.5V48.686z"/>
	<path opacity="0.6" d="M40.452,46.727H27.958c0,2.415,1.273,3.721,3.718,3.721c1.276,0,2.188-0.424,2.841-1.533
		h5.707c-0.456,1.955-1.629,3.394-3.163,4.337c-1.536,0.948-3.426,1.404-5.353,1.404c-5.543,0-9.689-3.132-9.689-8.905
		c0-5.581,3.817-8.941,9.266-8.941c5.806,0,9.166,3.592,9.166,9.3V46.727z M34.94,43.301c-0.293-1.599-1.76-2.643-3.362-2.643
		c-1.729,0-3.163,0.915-3.521,2.643H34.94z"/>
	<path opacity="0.6" d="M52.448,41.671c-0.911-0.492-2.184-0.814-3.197-0.814c-0.686,0-1.861,0.293-1.861,1.139
		c0,1.144,1.861,1.306,2.677,1.471c2.771,0.557,4.86,1.86,4.86,4.959c0,4.403-4.012,6.23-7.894,6.23
		c-2.381,0-4.73-0.684-6.753-1.924l2.154-4.145c1.206,0.85,3.229,1.698,4.699,1.698c0.75,0,1.859-0.361,1.859-1.274
		c0-1.304-1.859-1.369-3.72-1.858s-3.721-1.402-3.721-4.406c0-4.11,3.721-5.938,7.375-5.938c1.889,0,3.783,0.295,5.514,1.076
		L52.448,41.671z"/>
	<path opacity="0.6" d="M62.304,32.83c0,1.827-1.5,3.327-3.327,3.327c-1.828,0-3.327-1.5-3.327-3.327
		c0-1.826,1.499-3.33,3.327-3.33C60.803,29.5,62.304,31.004,62.304,32.83z M61.946,54.101h-5.938V37.363h5.938V54.101z"/>
	<path opacity="0.6" d="M82.657,52.47c0,7.112-3.521,9.983-9.686,9.983c-3.851,0-9.007-1.989-9.529-6.394h6.656
		c0.163,0.587,0.588,1.013,1.11,1.272c0.522,0.262,1.141,0.39,1.695,0.39c3.198,0,3.816-2.088,3.816-4.794v-0.787
		c-1.532,1.538-3.098,2.289-5.315,2.289c-4.894,0-8.253-3.721-8.253-8.551c0-4.894,3.456-9.07,8.58-9.07
		c1.956,0,3.75,0.653,4.926,2.316h0.063v-1.762h5.937V52.47z M69.283,45.619c0,2.118,1.403,3.75,3.816,3.75
		c2.414,0,3.819-1.632,3.819-3.75c0-2.057-1.405-3.784-3.819-3.784C70.686,41.835,69.283,43.562,69.283,45.619z"/>
	<path opacity="0.6" d="M90.214,39.517h0.065c1.369-2.021,3.036-2.708,5.353-2.708c4.5,0,6.294,2.839,6.294,6.95
		v10.342h-5.934v-8.156c0-1.6,0.258-4.404-2.677-4.404c-2.418,0-3.102,1.793-3.102,3.881v8.68h-5.935V37.363h5.935V39.517z"/>
	<path opacity="0.6" d="M121.555,46.727h-12.492c0,2.415,1.271,3.721,3.714,3.721c1.273,0,2.189-0.424,2.84-1.533
		h5.71c-0.456,1.955-1.631,3.394-3.162,4.337c-1.536,0.948-3.426,1.404-5.353,1.404c-5.55,0-9.689-3.132-9.689-8.905
		c0-5.581,3.817-8.941,9.266-8.941c5.807,0,9.167,3.592,9.167,9.3V46.727z M116.04,43.301c-0.293-1.599-1.759-2.643-3.359-2.643
		c-1.729,0-3.163,0.915-3.522,2.643H116.04z"/>
	<path opacity="0.6" d="M128.822,40.105h0.066c1.141-2.057,3.097-2.97,5.413-2.97h1.14v5.71
		c-0.812-0.456-1.597-0.557-2.509-0.557c-3.295,0-4.11,2.187-4.11,5.06v6.752h-5.939V37.363h5.939V40.105z"/>
</g>
</svg>
